<svg xmlns="http://www.w3.org/2000/svg" viewBox="0 0 64 64">
  <defs>
    <linearGradient id="g" x1="0" y1="0" x2="1" y2="1">
      <stop offset="0" stop-color="#d4af37"/>
      <stop offset="1" stop-color="#e3c554"/>
    </linearGradient>
  </defs>
  <!-- Sleek coupe silhouette -->
  <rect x="4" y="30" width="56" height="10" rx="5" fill="#121212"/>
  <path d="M10 30c6-10 18-14 30-14h4c4 0 8 3 10 8l2 6H10z" fill="url(#g)"/>
  <!-- Windows -->
  <path d="M26 22h14c3 0 5 2 6 5H24c0-3 1-5 2-5z" fill="#0f0f0f" opacity="0.9"/>
  <!-- Wheels -->
  <circle cx="18" cy="48" r="6" fill="#2b2b2b"/>
  <circle cx="46" cy="48" r="6" fill="#2b2b2b"/>
  <circle cx="18" cy="48" r="2.5" fill="#bcbcbc"/>
  <circle cx="46" cy="48" r="2.5" fill="#bcbcbc"/>
  <!-- Headlight -->
  <rect x="56" y="36" width="4" height="3" rx="1" fill="#fff6a5"/>
</svg>