<svg xmlns="http://www.w3.org/2000/svg" viewBox="0 0 64 64">
  <defs>
    <linearGradient id="gold" x1="0" y1="0" x2="1" y2="1">
      <stop offset="0" stop-color="#d4af37"/>
      <stop offset="1" stop-color="#e6c867"/>
    </linearGradient>
  </defs>
  <!-- Minimal SUV outline with gold body line -->
  <rect x="6" y="36" width="52" height="8" rx="4" fill="#141414"/>
  <path d="M8 36c2-8 10-14 22-14h10c6 0 10 3 12 8l2 6H8z" fill="url(#gold)"/>
  <!-- Cabin/windows -->
  <path d="M24 24h16c3 0 5 2 6 5H20c1-4 2-5 4-5z" fill="#0d0d0d" opacity="0.95"/>
  <!-- Wheels -->
  <circle cx="20" cy="50" r="6" fill="#2a2a2a"/>
  <circle cx="48" cy="50" r="6" fill="#2a2a2a"/>
  <circle cx="20" cy="50" r="2.4" fill="#cfcfcf"/>
  <circle cx="48" cy="50" r="2.4" fill="#cfcfcf"/>
  <!-- Light accents -->
  <rect x="54" y="40" width="4" height="2.5" rx="1" fill="#fff2a8"/>
  <rect x="6" y="40" width="3" height="2.5" rx="1" fill="#ffb3a8"/>
</svg>